<svg xmlns="http://www.w3.org/2000/svg" version="1.1" xmlns:xlink="http://www.w3.org/1999/xlink" xmlns:svgjs="http://svgjs.dev/svgjs" width="100%" height="100%" viewBox="0 0 1000 600"><rect width="1000" height="600" x="0" y="0" fill="grey"/><g><circle r="166.66666666666666" cx="340.3654123942057" cy="362.5875582168427" fill="white" transform="matrix(0.7196373104817333,0,0,0.7196373104817333,0,39.06850066729346)"/><path d="M339.45821047847136 437.5875488605817L339.45821047847136 437.5875488605817Q330.9180653083709 437.5875488605817 320.65737807103403 436.5865062032806Q310.3966908336972 435.55418096293874 300.38626426068566 433.864921478743Q290.3758376876741 432.17566199454734 281.80440993453294 429.9233160156198L281.80440993453294 429.9233160156198L287.87323104442123 389.3810883949229L316.71577260791076 389.3810883949229L323.6917886259782 418.2236299584125L348.6865724754664 418.2236299584125L348.6865724754664 401.3310351164555L304.32786972380893 368.4530403407207Q294.8805296455293 361.4457417396126 289.9065989420642 351.7794235800484Q284.96395082163974 342.0818228374434 284.96395082163974 326.3154009849502L284.96395082163974 326.3154009849502Q284.96395082163974 313.27056385699456 289.8127511929422 305.48120067986997Q294.63026898120404 297.723120085786 302.8575883208979 293.87536237178466Q311.08490766059174 290.058887240824 321.90868139266047 288.80758391919755Q332.7011725416886 287.5875631806118 344.43214118193646 287.5875631806118L344.43214118193646 287.5875631806118Q356.1318272391437 287.5875631806118 370.2089896074412 289.7147788273768Q384.2861519757387 291.87327705718235 395.98583803294594 295.25179602557375L395.98583803294594 295.25179602557375L389.9170169230577 335.7940236462705L363.7960600841057 335.7940236462705L357.69595639117676 306.951482082781L335.1724966019008 306.951482082781L335.1724966019008 323.84407692473803L379.5624819365989 356.72207170047284Q389.0098220148785 363.69808771854025 393.9837527183436 373.39568846114514Q398.92640083876813 383.09328920375003 398.92640083876813 398.8597110562433L398.92640083876813 398.8597110562433Q398.92640083876813 411.9045481841989 394.07760046746563 419.69391136132356Q389.2288000961632 427.4519919554075 380.9076330073473 431.2684670863681Q372.5864659185315 435.1162248003694 361.88782251862534 436.33624553895527Q351.18917911871927 437.5875488605817 339.45821047847136 437.5875488605817Z " fill="grey" transform="matrix(0.7196373104817333,0,0,0.7196373104817333,0,39.06850066729346)"/><path d="M651.553065509288 370.49437720150183L651.553065509288 437.58755126316305L590.3654031009759 437.58755126316305L590.3654031009759 428.5980501908426L600.7656652904852 428.5980501908426L600.7656652904852 296.57705634041486L590.3654031009759 296.57705634041486L590.3654031009759 287.5875552680945L651.553065509288 287.5875552680945L651.553065509288 357.50225156413364L686.9861354293829 357.50225156413364L686.9861354293829 287.5875552680945L748.173797837695 287.5875552680945L748.173797837695 296.57705634041486L737.7735356481857 296.57705634041486L737.7735356481857 428.5980501908426L748.173797837695 428.5980501908426L748.173797837695 437.58755126316305L686.9861354293829 437.58755126316305L686.9861354293829 370.49437720150183L651.553065509288 370.49437720150183ZM756.4415141523838 287.5875552680945L890.8247126641513 287.5875552680945L890.8247126641513 336.7345355831892L863.200041485707 336.7345355831892L857.2945298323577 304.1229878974721L843.8430866219513 304.1229878974721L849.026813517669 343.8211495672082L849.026813517669 428.5980501908426L868.8758943525369 428.5980501908426L868.8758943525369 437.58755126316305L778.3903324639982 437.58755126316305L778.3903324639982 428.5980501908426L798.2394132988662 428.5980501908426L798.2394132988662 343.8211495672082L803.4231401945838 304.1229878974721L789.9716969841774 304.1229878974721L784.0661853308283 338.14529670037814L756.4415141523838 338.14529670037814L756.4415141523838 287.5875552680945ZM909.4926911683496 296.57705634041486L899.0924289788402 296.57705634041486L899.0924289788402 287.5875552680945L987.4454449925584 287.5875552680945L1000.4375706299265 345.9208870439545L1004.9323211660868 345.9208870439545L1021.2380950089453 287.5875552680945L1084.5254948940037 287.5875552680945L1084.5254948940037 296.57705634041486L1074.1580411025684 296.57705634041486L1074.1580411025684 428.5980501908426L1084.5254948940037 428.5980501908426L1084.5254948940037 437.58755126316305L1019.8273338917562 437.58755126316305L1046.0412439530119 301.7607832361325L1036.3627665211338 301.7607832361325L998.7971507262185 437.58755126316305L968.0884901288028 437.58755126316305L937.6094883179063 301.7607832361325L927.9310108860285 301.7607832361325L947.058306963265 437.58755126316305L899.0924289788402 437.58755126316305L899.0924289788402 428.5980501908426L909.4926911683496 428.5980501908426L909.4926911683496 296.57705634041486ZM1188.2328412064298 387.02980983087946L1215.890320782948 387.02980983087946L1215.890320782948 437.58755126316305L1098.6987228620414 437.58755126316305L1098.6987228620414 428.5980501908426L1109.0989850515512 428.5980501908426L1109.0989850515512 296.57705634041486L1098.6987228620414 296.57705634041486L1098.6987228620414 287.5875552680945L1170.2866474598632 287.5875552680945L1170.2866474598632 296.57705634041486L1159.886385270354 296.57705634041486L1159.886385270354 423.4143232951251L1178.5543637745518 423.4143232951251L1188.2328412064298 387.02980983087946Z " fill="white" transform="matrix(0.7196373104817333,0,0,0.7196373104817333,0,39.06850066729346)"/></g></svg>